<svg width="354" height="354" viewBox="0 0 354 354" fill="none" xmlns="http://www.w3.org/2000/svg">
<rect width="354" height="354" rx="20" fill="#FFCA29"/>
<path d="M96 150L176.5 203.244L257 150L257 221.518L219.51 242.049L257 263.933L257 335L176.5 282.433L96 335L96 263.933L133.49 242.049L96 221.518L96 150Z" fill="#FF4C4B"/>
<path d="M176.27 19.0001C160.645 19.0001 146.779 21.8092 134.67 27.4275C122.561 33.0457 113.056 40.8197 106.156 50.7496C99.3853 60.6795 96 72.0466 96 84.8509V96.6099C96 109.545 99.3853 120.912 106.156 130.711C113.056 140.641 122.561 148.415 134.67 154.033C146.779 159.652 160.645 162.461 176.27 162.461C192.024 162.461 205.891 159.652 217.869 154.033C229.978 148.415 239.418 140.641 246.188 130.711C253.089 120.912 256.539 109.545 256.539 96.6099V84.8509C256.539 72.0466 253.089 60.6795 246.188 50.7496C239.418 40.8197 229.978 33.0457 217.869 27.4275C205.891 21.8092 192.024 19.0001 176.27 19.0001ZM176.27 64.0765C182.78 64.0765 188.183 66.1017 192.48 70.1521C196.907 74.2024 199.12 79.102 199.12 84.8509V96.6099C199.12 102.359 196.907 107.258 192.48 111.309C188.183 115.359 182.78 117.384 176.27 117.384C169.89 117.384 164.486 115.359 160.059 111.309C155.633 107.258 153.419 102.359 153.419 96.6099V84.8509C153.419 79.102 155.633 74.2024 160.059 70.1521C164.486 66.1017 169.89 64.0765 176.27 64.0765Z" fill="#FF4C4B"/>
</svg>
